HIERARCHY
ROOT Hips
{
  OFFSET -6.66184 96.5593 59.7563
  CHANNELS 6 Xposition Yposition Zposition Zrotation Xrotation Yrotation
  JOINT Chest
  {
    OFFSET 0 10.5691 -1.07959
    CHANNELS 6 Xposition Yposition Zposition Zrotation Xrotation Yrotation
    JOINT Chest2
    {
      OFFSET 0 11.6675 1.08235
      CHANNELS 6 Xposition Yposition Zposition Zrotation Xrotation Yrotation
      JOINT Chest3
      {
        OFFSET 0 10.5876 0
        CHANNELS 6 Xposition Yposition Zposition Zrotation Xrotation Yrotation
        JOINT Chest4
        {
          OFFSET 0 10.5876 0
          CHANNELS 6 Xposition Yposition Zposition Zrotation Xrotation Yrotation
          JOINT Neck
          {
            OFFSET 0 14.88 0
            CHANNELS 6 Xposition Yposition Zposition Zrotation Xrotation Yrotation
            JOINT Head
            {
              OFFSET 0 9.61472 2.16553
              CHANNELS 6 Xposition Yposition Zposition Zrotation Xrotation Yrotation
              End Site
              {
                OFFSET 0 0 0
              }
            }
          }
          JOINT RightCollar
          {
            OFFSET -3.23953 8.30385 0
            CHANNELS 6 Xposition Yposition Zposition Zrotation Xrotation Yrotation
            JOINT RightShoulder
            {
              OFFSET -15.1725 0 0
              CHANNELS 6 Xposition Yposition Zposition Zrotation Xrotation Yrotation
              JOINT RightElbow
              {
                OFFSET -32.4113 0 0
                CHANNELS 6 Xposition Yposition Zposition Zrotation Xrotation Yrotation
                JOINT RightWrist
                {
                  OFFSET -26.4919 0 1.0813
                  CHANNELS 6 Xposition Yposition Zposition Zrotation Xrotation Yrotation
                  End Site
                  {
                    OFFSET 0 0 0
                  }
                }
              }
            }
          }
          JOINT LeftCollar
          {
            OFFSET 3.23953 8.30385 0
            CHANNELS 6 Xposition Yposition Zposition Zrotation Xrotation Yrotation
            JOINT LeftShoulder
            {
              OFFSET 15.1725 0 0
              CHANNELS 6 Xposition Yposition Zposition Zrotation Xrotation Yrotation
              JOINT LeftElbow
              {
                OFFSET 32.4113 0 0
                CHANNELS 6 Xposition Yposition Zposition Zrotation Xrotation Yrotation
                JOINT LeftWrist
                {
                  OFFSET 26.4919 0 1.0813
                  CHANNELS 6 Xposition Yposition Zposition Zrotation Xrotation Yrotation
                  End Site
                  {
                    OFFSET 0 0 0
                  }
                }
              }
            }
          }
        }
      }
    }
  }
  JOINT RightHip
  {
    OFFSET -8.63673 0.00547028 0
    CHANNELS 6 Xposition Yposition Zposition Zrotation Xrotation Yrotation
    JOINT RightKnee
    {
      OFFSET 1.03189e-005 -44.4932 -2.13961
      CHANNELS 6 Xposition Yposition Zposition Zrotation Xrotation Yrotation
      JOINT RightAnkle
      {
        OFFSET 0 -43.4408 -3.54051
        CHANNELS 6 Xposition Yposition Zposition Zrotation Xrotation Yrotation
        JOINT RightToe
        {
          OFFSET 0 -8.3927 19.1252
          CHANNELS 6 Xposition Yposition Zposition Zrotation Xrotation Yrotation
          End Site
          {
            OFFSET 0 0 0
          }
        }
      }
    }
  }
  JOINT LeftHip
  {
    OFFSET 8.63673 0.00547028 0
    CHANNELS 6 Xposition Yposition Zposition Zrotation Xrotation Yrotation
    JOINT LeftKnee
    {
      OFFSET 0 -44.4933 -2.13958
      CHANNELS 6 Xposition Yposition Zposition Zrotation Xrotation Yrotation
      JOINT LeftAnkle
      {
        OFFSET 0 -43.4407 -3.54051
        CHANNELS 6 Xposition Yposition Zposition Zrotation Xrotation Yrotation
        JOINT LeftToe
        {
          OFFSET 0 -8.3927 19.1252
          CHANNELS 6 Xposition Yposition Zposition Zrotation Xrotation Yrotation
          End Site
          {
            OFFSET 0 0 0
          }
        }
      }
    }
  }
}
MOTION
Frames:	7
Frame Time:	0.0333333
-20.4982 88.9809 89.6681 -2.601 0.646198 -101.486 0 10.5691 -1.07959 0.627563 1.44296 -0.236521 -1.42109e-014 11.6675 1.08235 1.26174 2.88318 -0.489022 -1.42109e-014 10.5876 -7.10543e-015 1.26174 2.88318 -0.489061 0 10.5876 0 1.26174 2.88318 -0.489042 0 14.88 -1.77636e-014 -9.80044 -6.00874 -2.71528 0 9.61472 2.16553 6.09535 5.53709 -6.6078 -3.23953 8.30385 -3.55271e-015 -1.59028e-015 -1.98785e-016 1.59028e-015 -15.1725 -4.76837e-006 -3.55271e-015 58.2824 7.69738 11.9697 -32.4113 -3.26439e-006 -2.35587e-006 25.0501 -19.6973 27.7185 -26.4919 -4.37104e-006 1.0813 6.55602 -0.758846 -14.9144 3.23953 8.30385 0 -1.59028e-015 -1.98785e-016 1.59028e-015 15.1725 -4.76837e-006 -1.42109e-014 -69.7399 6.85853 -6.72533 32.4113 -5.02893e-006 -2.37179e-006 -6.97581 1.19739 -26.0479 26.4919 1.29862e-006 1.0813 4.86864 -0.229282 -3.66838 -8.63673 0.00547028 0 -11.577 -25.5186 -17.0419 1.03189e-005 -44.4932 -2.13705 10.5461 40.3315 -14.8103 -2.64367e-009 -43.4408 -3.54051 -12.2855 -0.654774 -10.4436 -8.05112e-009 -8.3927 19.1252 -4.69872 -10.4977 -10.3798 8.63673 0.00547028 -3.55271e-015 19.2827 -9.91095 -7.87443 4.95924e-007 -44.4933 -2.13963 1.88651 52.3673 -1.4925 -4.88572e-007 -43.4407 -3.54051 -16.8002 10.4595 2.60234 -6.14705e-008 -8.3927 19.1252 -21.3857 11.5835 15.8353 
-23.7436 89.5849 86.6695 -3.27778 -0.193321 -103.556 1.42109e-014 10.5691 -1.07959 0.532319 1.58452 0.0214304 -1.42109e-014 11.6675 1.08235 1.06464 3.16915 0.0281313 1.42109e-014 10.5876 -1.06581e-014 1.06464 3.16915 0.0281014 1.42109e-014 10.5876 -1.77636e-015 1.06464 3.16915 0.0281063 0 14.88 -1.77636e-014 -8.70642 -6.14133 -2.76552 -1.42109e-014 9.61472 2.16553 4.33471 6.21263 -5.92675 -3.23953 8.30385 3.55271e-015 2.75869e-032 -9.93923e-016 1.59028e-015 -15.1725 -4.76837e-006 0 57.703 7.71035 14.3563 -32.4113 -3.26439e-006 -2.35587e-006 24.676 -18.8046 28.0425 -26.4919 -4.37104e-006 1.0813 4.96884 -0.538762 -14.0618 3.23953 8.30385 3.55271e-015 2.75869e-032 -9.93923e-016 1.59028e-015 15.1725 -4.76837e-006 -7.10543e-015 -71.1799 7.01872 -4.98551 32.4113 -5.02893e-006 -2.37179e-006 -8.29879 1.05921 -21.5795 26.4919 1.29862e-006 1.0813 4.1262 -0.171588 -2.96875 -8.63673 0.00547028 0 -10.4087 -22.5311 -15.7293 1.03189e-005 -44.4932 -2.13705 10.5406 39.7413 -13.8835 -2.64367e-009 -43.4408 -3.54051 -13.1675 -1.4904 -10.6869 -8.05113e-009 -8.3927 19.1252 -6.7164 -13.649 -9.07147 8.63673 0.00547028 0 15.4525 -14.063 -8.01913 4.95924e-007 -44.4933 -2.13963 -1.14149 58.7075 -1.04605 -4.88572e-007 -43.4407 -3.54051 -15.0527 8.74499 0.31933 -6.14705e-008 -8.3927 19.1252 -13.9525 8.3111 10.4356 
-26.8329 90.3404 83.8354 -3.50673 -0.895877 -106.306 1.42109e-014 10.5691 -1.07959 0.4393 1.6125 0.287774 0 11.6675 1.08235 0.870984 3.22715 0.563519 0 10.5876 -1.06581e-014 0.870983 3.22715 0.563517 0 10.5876 7.10543e-015 0.870985 3.22715 0.563502 -1.42109e-014 14.88 -1.06581e-014 -8.50581 -5.78372 -2.36842 -1.42109e-014 9.61472 2.16553 3.50038 6.56957 -5.30554 -3.23953 8.30385 0 4.41391e-032 7.95139e-016 -3.18055e-015 -15.1725 -4.76837e-006 -3.55271e-015 57.1543 8.49856 16.8018 -32.4113 -3.26439e-006 -2.35587e-006 23.6085 -16.7476 27.3472 -26.4919 -4.37104e-006 1.0813 4.57328 -0.425142 -12.3922 3.23953 8.30385 3.55271e-015 4.41391e-032 7.95139e-016 -3.18055e-015 15.1725 -4.76837e-006 -1.42109e-014 -72.5155 7.56903 -2.43154 32.4113 -5.02893e-006 -2.37179e-006 -9.59391 0.655481 -18.1508 26.4919 1.29862e-006 1.0813 2.71964 -0.0785576 -1.62612 -8.63673 0.00547028 3.55271e-015 -8.35815 -19.7996 -13.7951 1.03189e-005 -44.4932 -2.13706 8.64562 38.2224 -13.5965 -2.64369e-009 -43.4408 -3.54051 -13.0292 -3.23072 -9.22935 -8.05113e-009 -8.3927 19.1252 -6.59202 -13.407 -8.06617 8.63673 0.00547028 3.55271e-015 11.9013 -18.1458 -7.04039 4.95924e-007 -44.4933 -2.13963 -6.40702 61.8658 1.05605 -4.88572e-007 -43.4407 -3.54051 -10.8863 7.40314 0.21192 -6.14705e-008 -8.3927 19.1252 -6.15736 3.25293 6.93697 
-29.8787 91.0684 81.2252 -3.63795 -1.79488 -109.014 0 10.5691 -1.07959 0.316994 1.57406 0.510006 0 11.6675 1.08235 0.620295 3.15088 1.01186 0 10.5876 -1.42109e-014 0.620294 3.15088 1.01187 0 10.5876 0 0.620293 3.15088 1.01189 0 14.88 -1.42109e-014 -7.92326 -5.06053 -1.79599 1.42109e-014 9.61472 2.16553 1.76478 6.38364 -4.1873 -3.23953 8.30385 -3.55271e-015 2.20695e-031 -3.97569e-015 3.18055e-015 -15.1725 -4.76837e-006 0 56.9704 9.19018 18.7009 -32.4113 -3.26439e-006 -2.35587e-006 23.5055 -16.0461 28.3916 -26.4919 -4.37104e-006 1.0813 5.61224 -0.515434 -12.2056 3.23953 8.30385 -3.55271e-015 2.20695e-031 -3.97569e-015 3.18055e-015 15.1725 -4.76837e-006 -7.10543e-015 -74.0195 8.86462 0.838869 32.4113 -5.02893e-006 -2.37179e-006 -10.8434 -0.0469859 -16.0057 26.4919 1.29862e-006 1.0813 2.71892 -0.0552608 -0.620264 -8.63673 0.00547028 -3.55271e-015 -7.10458 -16.9433 -11.4887 1.03189e-005 -44.4932 -2.13707 7.90709 36.1613 -12.3682 -2.64369e-009 -43.4408 -3.54051 -13.1665 -4.03888 -8.91089 -8.05113e-009 -8.3927 19.1252 -6.31172 -13.039 -10.0732 8.63673 0.00547028 -1.06581e-014 8.32821 -22.0544 -5.21259 4.95924e-007 -44.4933 -2.13963 -11.0231 61.7289 3.43074 -4.88572e-007 -43.4407 -3.54051 -5.29552 6.62909 1.92625 -6.14705e-008 -8.3927 19.1252 2.30699 -3.28891 5.07266 
-32.908 91.8271 78.7583 -3.5435 -2.88858 -111.285 0 10.5691 -1.07959 0.17686 1.53277 0.680886 1.42109e-014 11.6675 1.08235 0.335654 3.06758 1.35779 0 10.5876 -3.55271e-015 0.335658 3.06758 1.35777 0 10.5876 -3.55271e-015 0.335656 3.06758 1.35776 -1.42109e-014 14.88 -1.77636e-014 -7.98184 -4.95641 -1.09186 0 9.61472 2.16553 1.34632 5.91123 -3.41782 -3.23953 8.30385 3.55271e-015 1.59028e-015 -1.98785e-015 3.18055e-015 -15.1725 -4.76837e-006 -3.55271e-015 56.8613 10.0812 20.2887 -32.4113 -3.26439e-006 -2.35587e-006 24.2656 -16.5103 30.9381 -26.4919 -4.37104e-006 1.0813 6.50675 -0.643277 -12.9899 3.23953 8.30385 3.55271e-015 1.59028e-015 -1.98785e-015 3.18055e-015 15.1725 -4.76837e-006 -1.06581e-014 -75.6611 9.83588 4.0784 32.4113 -5.02893e-006 -2.37179e-006 -11.6324 -0.502465 -15.2055 26.4919 1.29862e-006 1.0813 3.03958 -0.0514988 -0.204671 -8.63673 0.00547028 7.10543e-015 -6.36301 -14.2472 -10.0297 1.03189e-005 -44.4932 -2.13708 6.6602 33.8273 -11.7958 -2.64367e-009 -43.4408 -3.54051 -12.1331 -4.65612 -8.31025 -8.05113e-009 -8.3927 19.1252 -6.97453 -14.0744 -10.0592 8.63673 0.00547028 0 4.83152 -25.8055 -3.53273 4.95924e-007 -44.4933 -2.13963 -13.0695 58.2786 5.12713 -4.88572e-007 -43.4407 -3.54051 -2.43792 6.31193 2.49698 -6.14705e-008 -8.3927 19.1252 6.71836 -7.01526 5.68212 
-35.8647 92.473 76.2807 -3.31143 -3.67228 -113.22 0 10.5691 -1.07959 0.0588922 1.50701 0.833227 -1.42109e-014 11.6675 1.08235 0.095911 3.01473 1.66579 0 10.5876 -3.55271e-015 0.095913 3.01473 1.66579 1.42109e-014 10.5876 0 0.0959112 3.01473 1.66578 0 14.88 -1.06581e-014 -7.03084 -5.2519 -0.767313 0 9.61472 2.16553 -0.0686427 5.64956 -2.46556 -3.23953 8.30385 7.10543e-015 -1.59028e-015 3.97569e-016 -0 -15.1725 -4.76837e-006 1.77636e-015 56.7499 10.9174 21.5891 -32.4113 -3.26439e-006 -2.35587e-006 24.5124 -16.2306 33.7157 -26.4919 -4.37104e-006 1.0813 8.02166 -0.818722 -13.3825 3.23953 8.30385 0 -1.59028e-015 3.97569e-016 -0 15.1725 -4.76837e-006 -1.06581e-014 -76.8707 9.3674 6.69295 32.4113 -5.02893e-006 -2.37179e-006 -11.9337 -0.583967 -14.4161 26.4919 1.29862e-006 1.0813 2.75729 -0.0410921 0.0176154 -8.63673 0.00547028 -7.10543e-015 -5.09357 -11.3828 -9.48472 1.03189e-005 -44.4932 -2.13709 4.27392 30.8997 -10.5955 -2.64367e-009 -43.4408 -3.54051 -11.2534 -4.7562 -8.04293 -8.05113e-009 -8.3927 19.1252 -7.49026 -14.8761 -8.71359 8.63673 0.00547028 -1.06581e-014 1.91603 -28.7619 -2.12027 4.95924e-007 -44.4933 -2.13963 -12.342 51.8714 5.63098 -4.88572e-007 -43.4407 -3.54051 -1.87846 5.45871 1.07022 -6.14705e-008 -8.3927 19.1252 8.40328 -8.43786 6.26144 
-38.8328 92.8362 73.7728 -2.93629 -4.0813 -114.946 -2.84217e-014 10.5691 -1.07959 -0.0122182 1.45534 0.97094 0 11.6675 1.08235 -0.0491755 2.91025 1.94315 0 10.5876 -1.06581e-014 -0.049174 2.91025 1.94312 0 10.5876 7.10543e-015 -0.0491764 2.91025 1.94316 0 14.88 -1.42109e-014 -6.06944 -5.42822 -0.423588 0 9.61472 2.16553 -1.17209 5.6505 -1.59013 -3.23953 8.30385 -3.55271e-015 -0 0 3.18055e-015 -15.1725 -4.76837e-006 0 56.5509 12.0303 22.3752 -32.4113 -3.26439e-006 -2.35587e-006 24.1523 -15.3088 36.2132 -26.4919 -4.37104e-006 1.0813 8.46753 -0.837174 -13.001 3.23953 8.30385 0 -0 0 3.18055e-015 15.1725 -4.76837e-006 -1.06581e-014 -77.6886 7.26316 8.65754 32.4113 -5.02893e-006 -2.37179e-006 -12.1043 -1.11471 -13.0992 26.4919 1.29862e-006 1.0813 2.9516 -0.0186154 1.00321 -8.63673 0.00547028 3.55271e-015 -3.67614 -8.52017 -9.55797 1.03189e-005 -44.4932 -2.1371 2.03762 28.3993 -8.46839 -2.64367e-009 -43.4408 -3.54051 -10.1462 -5.42585 -6.91945 -8.05113e-009 -8.3927 19.1252 -7.21388 -14.444 -9.49588 8.63673 0.00547028 7.10543e-015 -0.405789 -30.2279 -1.63562 4.95924e-007 -44.4933 -2.13963 -11.2095 41.9257 5.63753 -4.88572e-007 -43.4407 -3.54051 -1.50361 5.87466 1.01956 -6.14705e-008 -8.3927 19.1252 10.4012 -9.98565 5.99151 
